<svg width="16" height="16" viewBox="0 0 32 32" fill="none" xmlns="http://www.w3.org/2000/svg">
<g filter="url(#filter0_dd_85_1316)">
<path d="M16 0.363647C9.57383 0.363647 4.36365 5.57383 4.36365 12C4.36365 18.4276 9.57383 23.6364 16 23.6364C22.4262 23.6364 27.6364 18.4276 27.6364 12C27.6364 5.57383 22.4262 0.363647 16 0.363647ZM17.0509 16.9673L17.2626 17.3535C17.2626 17.3535 16.3258 19.1898 14.7578 19.1898C13.9273 19.1898 13.5113 18.6596 13.5113 17.6C13.5113 16.8415 13.712 15.7651 14.1113 14.3753C14.5098 12.9818 14.7106 12.0596 14.7106 11.6051C14.7106 11.1971 14.5193 10.9222 14.1346 10.7811L14.2524 10.2313C14.2524 10.2313 15.616 9.21819 16.6371 9.21819C17.3586 9.21819 17.7193 9.60874 17.7193 10.3927C17.7193 10.7695 17.552 11.5876 17.2138 12.8502C16.9396 13.8618 16.7324 14.6895 16.592 15.3302C16.4742 15.856 16.416 16.2167 16.416 16.4138C16.416 16.7826 16.6276 16.9673 17.0509 16.9673ZM16.8909 8.00728C16.0073 8.00728 15.2909 7.29456 15.2909 6.41092C15.2909 5.52728 16.0066 4.81019 16.8909 4.81019C17.7731 4.81019 18.4887 5.52728 18.4887 6.41092C18.4887 7.29456 17.7731 8.00728 16.8909 8.00728Z" fill="url(#paint0_linear_85_1316)"/>
</g>
<defs>
<filter id="filter0_dd_85_1316" x="0.363647" y="0.363647" width="31.2727" height="31.2727" filterUnits="userSpaceOnUse" color-interpolation-filters="sRGB">
<feFlood flood-opacity="0" result="BackgroundImageFix"/>
<feColorMatrix in="SourceAlpha" type="matrix" values="0 0 0 0 0 0 0 0 0 0 0 0 0 0 0 0 0 0 127 0" result="hardAlpha"/>
<feOffset dy="4"/>
<feGaussianBlur stdDeviation="2"/>
<feComposite in2="hardAlpha" operator="out"/>
<feColorMatrix type="matrix" values="0 0 0 0 0 0 0 0 0 0 0 0 0 0 0 0 0 0 0.25 0"/>
<feBlend mode="normal" in2="BackgroundImageFix" result="effect1_dropShadow_85_1316"/>
<feColorMatrix in="SourceAlpha" type="matrix" values="0 0 0 0 0 0 0 0 0 0 0 0 0 0 0 0 0 0 127 0" result="hardAlpha"/>
<feOffset dy="4"/>
<feGaussianBlur stdDeviation="2"/>
<feComposite in2="hardAlpha" operator="out"/>
<feColorMatrix type="matrix" values="0 0 0 0 0 0 0 0 0 0 0 0 0 0 0 0 0 0 0.25 0"/>
<feBlend mode="normal" in2="effect1_dropShadow_85_1316" result="effect2_dropShadow_85_1316"/>
<feBlend mode="normal" in="SourceGraphic" in2="effect2_dropShadow_85_1316" result="shape"/>
</filter>
<linearGradient id="paint0_linear_85_1316" x1="16.0151" y1="0.363647" x2="15.6782" y2="23.6319" gradientUnits="userSpaceOnUse">
<stop offset="0.2" stop-color="#FFDCA7"/>
<stop offset="0.9" stop-color="#EB7100"/>
</linearGradient>
</defs>
</svg>
