<svg width="24" height="24" viewBox="0 0 24 24" fill="none" xmlns="http://www.w3.org/2000/svg">
<g clip-path="url(#clip0_124_1925)">
<path d="M0 0H24V24H0" fill="#BD3D44"/>
<path d="M0 2.71875H24H0ZM0 6.42188H24H0ZM0 10.125H24H0ZM0 13.8281H24H0ZM0 17.5312H24H0ZM0 21.2344H24H0Z" fill="black"/>
<path d="M24 22.1719H0V20.2969H24V22.1719ZM24 18.4688H0V16.5938H24V18.4688ZM24 14.7656H0V12.8906H24V14.7656ZM24 11.0625H0V9.1875H24V11.0625ZM24 7.35938H0V5.48438H24V7.35938ZM24 3.65625H0V1.78125H24V3.65625Z" fill="white"/>
<path d="M0 0H18.2812V12.8906H0V0Z" fill="#192F5D"/>
<path d="M1.54688 0.515625L1.37812 1.03125H0.84375L1.275 1.34531L1.11094 1.85625L1.54688 1.54219L1.98281 1.85625L1.81875 1.34531L2.25 1.03125H1.71562L1.54688 0.515625Z" fill="white"/>
<path d="M4.59375 0.515625L4.425 1.03125H3.89062L4.32187 1.34531L4.15781 1.85625L4.59375 1.54219L5.02969 1.85625L4.86563 1.34531L5.29688 1.03125H4.7625L4.59375 0.515625Z" fill="white"/>
<path d="M7.64062 0.515625L7.47187 1.03125H6.9375L7.36875 1.34531L7.20469 1.85625L7.64062 1.54219L8.07656 1.85625L7.9125 1.34531L8.34375 1.03125H7.80938L7.64062 0.515625Z" fill="white"/>
<path d="M10.6875 0.515625L10.5187 1.03125H9.98438L10.4156 1.34531L10.2516 1.85625L10.6875 1.54219L11.1234 1.85625L10.9594 1.34531L11.3906 1.03125H10.8563L10.6875 0.515625Z" fill="white"/>
<path d="M13.7344 0.515625L13.5656 1.03125H13.0312L13.4625 1.34531L13.2984 1.85625L13.7344 1.54219L14.1703 1.85625L14.0062 1.34531L14.4375 1.03125H13.9031L13.7344 0.515625Z" fill="white"/>
<path d="M16.5563 1.34531L16.3922 1.85625L16.8281 1.54219L17.2641 1.85625L17.1 1.34531L17.5312 1.03125H16.9969L16.8281 0.515625L16.6594 1.03125H16.125L16.5563 1.34531Z" fill="white"/>
<path d="M3.09375 1.82812L2.925 2.34375H2.39062L2.82188 2.65781L2.65781 3.16875L3.09375 2.85469L3.52969 3.16875L3.36563 2.65781L3.79688 2.34375H3.2625L3.09375 1.82812Z" fill="white"/>
<path d="M6.14062 1.82812L5.97188 2.34375H5.4375L5.86875 2.65781L5.70469 3.16875L6.14062 2.85469L6.57656 3.16875L6.4125 2.65781L6.84375 2.34375H6.30938L6.14062 1.82812Z" fill="white"/>
<path d="M9.1875 1.82812L9.01875 2.34375H8.48438L8.91562 2.65781L8.75156 3.16875L9.1875 2.85469L9.62344 3.16875L9.45938 2.65781L9.89062 2.34375H9.35625L9.1875 1.82812Z" fill="white"/>
<path d="M12.2344 1.82812L12.0656 2.34375H11.5312L11.9625 2.65781L11.7984 3.16875L12.2344 2.85469L12.6703 3.16875L12.5062 2.65781L12.9375 2.34375H12.4031L12.2344 1.82812Z" fill="white"/>
<path d="M15.2812 1.82812L15.1125 2.34375H14.5781L15.0094 2.65781L14.8453 3.16875L15.2812 2.85469L15.7172 3.16875L15.5531 2.65781L15.9844 2.34375H15.45L15.2812 1.82812Z" fill="white"/>
<path d="M1.54688 3.09375L1.37812 3.60937H0.84375L1.275 3.92344L1.11094 4.43437L1.54688 4.12031L1.98281 4.43437L1.81875 3.92344L2.25 3.60937H1.71562L1.54688 3.09375Z" fill="white"/>
<path d="M4.59375 3.09375L4.425 3.60937H3.89062L4.32187 3.92344L4.15781 4.43437L4.59375 4.12031L5.02969 4.43437L4.86563 3.92344L5.29688 3.60937H4.7625L4.59375 3.09375Z" fill="white"/>
<path d="M7.64062 3.09375L7.47187 3.60937H6.9375L7.36875 3.92344L7.20469 4.43437L7.64062 4.12031L8.07656 4.43437L7.9125 3.92344L8.34375 3.60937H7.80938L7.64062 3.09375Z" fill="white"/>
<path d="M10.6875 3.09375L10.5187 3.60937H9.98438L10.4156 3.92344L10.2516 4.43437L10.6875 4.12031L11.1234 4.43437L10.9594 3.92344L11.3906 3.60937H10.8563L10.6875 3.09375Z" fill="white"/>
<path d="M13.7344 3.09375L13.5656 3.60937H13.0312L13.4625 3.92344L13.2984 4.43437L13.7344 4.12031L14.1703 4.43437L14.0062 3.92344L14.4375 3.60937H13.9031L13.7344 3.09375Z" fill="white"/>
<path d="M16.8281 3.09375L16.6594 3.60937H16.125L16.5563 3.92344L16.3922 4.43437L16.8281 4.12031L17.2641 4.43437L17.1 3.92344L17.5312 3.60937H16.9969L16.8281 3.09375Z" fill="white"/>
<path d="M3.09375 4.40625L2.925 4.92187H2.39062L2.82188 5.23594L2.65781 5.74687L3.09375 5.43281L3.52969 5.74687L3.36563 5.23594L3.79688 4.92187H3.2625L3.09375 4.40625Z" fill="white"/>
<path d="M6.14062 4.40625L5.97188 4.92187H5.4375L5.86875 5.23594L5.70469 5.74687L6.14062 5.43281L6.57656 5.74687L6.4125 5.23594L6.84375 4.92187H6.30938L6.14062 4.40625Z" fill="white"/>
<path d="M9.1875 4.40625L9.01875 4.92187H8.48438L8.91562 5.23594L8.75156 5.74687L9.1875 5.43281L9.62344 5.74687L9.45938 5.23594L9.89062 4.92187H9.35625L9.1875 4.40625Z" fill="white"/>
<path d="M12.2344 4.40625L12.0656 4.92187H11.5312L11.9625 5.23594L11.7984 5.74687L12.2344 5.43281L12.6703 5.74687L12.5062 5.23594L12.9375 4.92187H12.4031L12.2344 4.40625Z" fill="white"/>
<path d="M15.2812 4.40625L15.1125 4.92187H14.5781L15.0094 5.23594L14.8453 5.74687L15.2812 5.43281L15.7172 5.74687L15.5531 5.23594L15.9844 4.92187H15.45L15.2812 4.40625Z" fill="white"/>
<path d="M1.54688 5.67187L1.37812 6.1875H0.84375L1.275 6.50156L1.11094 7.0125L1.54688 6.69844L1.98281 7.0125L1.81875 6.50156L2.25 6.1875H1.71562L1.54688 5.67187Z" fill="white"/>
<path d="M4.59375 5.67187L4.425 6.1875H3.89062L4.32187 6.50156L4.15781 7.0125L4.59375 6.69844L5.02969 7.0125L4.86563 6.50156L5.29688 6.1875H4.7625L4.59375 5.67187Z" fill="white"/>
<path d="M7.64062 5.67187L7.47187 6.1875H6.9375L7.36875 6.50156L7.20469 7.0125L7.64062 6.69844L8.07656 7.0125L7.9125 6.50156L8.34375 6.1875H7.80938L7.64062 5.67187Z" fill="white"/>
<path d="M10.6875 5.67187L10.5187 6.1875H9.98438L10.4156 6.50156L10.2516 7.0125L10.6875 6.69844L11.1234 7.0125L10.9594 6.50156L11.3906 6.1875H10.8563L10.6875 5.67187Z" fill="white"/>
<path d="M13.7344 5.67187L13.5656 6.1875H13.0312L13.4625 6.50156L13.2984 7.0125L13.7344 6.69844L14.1703 7.0125L14.0062 6.50156L14.4375 6.1875H13.9031L13.7344 5.67187Z" fill="white"/>
<path d="M16.8281 5.67187L16.6594 6.1875H16.125L16.5563 6.50156L16.3922 7.0125L16.8281 6.69844L17.2641 7.0125L17.1 6.50156L17.5312 6.1875H16.9969L16.8281 5.67187Z" fill="white"/>
<path d="M3.09375 6.98437L2.925 7.5H2.39062L2.82188 7.81406L2.65781 8.325L3.09375 8.01094L3.52969 8.325L3.36563 7.81406L3.79688 7.5H3.2625L3.09375 6.98437Z" fill="white"/>
<path d="M6.14062 6.98437L5.97188 7.5H5.4375L5.86875 7.81406L5.70469 8.325L6.14062 8.01094L6.57656 8.325L6.4125 7.81406L6.84375 7.5H6.30938L6.14062 6.98437Z" fill="white"/>
<path d="M9.1875 6.98437L9.01875 7.5H8.48438L8.91562 7.81406L8.75156 8.325L9.1875 8.01094L9.62344 8.325L9.45938 7.81406L9.89062 7.5H9.35625L9.1875 6.98437Z" fill="white"/>
<path d="M12.2344 6.98437L12.0656 7.5H11.5312L11.9625 7.81406L11.7984 8.325L12.2344 8.01094L12.6703 8.325L12.5062 7.81406L12.9375 7.5H12.4031L12.2344 6.98437Z" fill="white"/>
<path d="M15.2812 6.98437L15.1125 7.5H14.5781L15.0094 7.81406L14.8453 8.325L15.2812 8.01094L15.7172 8.325L15.5531 7.81406L15.9844 7.5H15.45L15.2812 6.98437Z" fill="white"/>
<path d="M1.54688 8.29687L1.37812 8.8125H0.84375L1.275 9.12656L1.11094 9.6375L1.54688 9.32344L1.98281 9.6375L1.81875 9.12656L2.25 8.8125H1.71562L1.54688 8.29687Z" fill="white"/>
<path d="M4.59375 8.29687L4.425 8.8125H3.89062L4.32187 9.12656L4.15781 9.6375L4.59375 9.32344L5.02969 9.6375L4.86563 9.12656L5.29688 8.8125H4.7625L4.59375 8.29687Z" fill="white"/>
<path d="M7.64062 8.29687L7.47187 8.8125H6.9375L7.36875 9.12656L7.20469 9.6375L7.64062 9.32344L8.07656 9.6375L7.9125 9.12656L8.34375 8.8125H7.80938L7.64062 8.29687Z" fill="white"/>
<path d="M10.6875 8.29687L10.5187 8.8125H9.98438L10.4156 9.12656L10.2516 9.6375L10.6875 9.32344L11.1234 9.6375L10.9594 9.12656L11.3906 8.8125H10.8563L10.6875 8.29687Z" fill="white"/>
<path d="M13.7344 8.29687L13.5656 8.8125H13.0312L13.4625 9.12656L13.2984 9.6375L13.7344 9.32344L14.1703 9.6375L14.0062 9.12656L14.4375 8.8125H13.9031L13.7344 8.29687Z" fill="white"/>
<path d="M16.8281 8.29687L16.6594 8.8125H16.125L16.5563 9.12656L16.3922 9.6375L16.8281 9.32344L17.2641 9.6375L17.1 9.12656L17.5312 8.8125H16.9969L16.8281 8.29687Z" fill="white"/>
<path d="M3.2625 10.125L3.09375 9.60937L2.925 10.125H2.39062L2.82188 10.4391L2.65781 10.95L3.09375 10.6359L3.52969 10.95L3.36563 10.4391L3.79688 10.125H3.2625Z" fill="white"/>
<path d="M6.30938 10.125L6.14062 9.60937L5.97188 10.125H5.4375L5.86875 10.4391L5.70469 10.95L6.14062 10.6359L6.57656 10.95L6.4125 10.4391L6.84375 10.125H6.30938Z" fill="white"/>
<path d="M9.35625 10.125L9.1875 9.60937L9.01875 10.125H8.48438L8.91562 10.4391L8.75156 10.95L9.1875 10.6359L9.62344 10.95L9.45938 10.4391L9.89062 10.125H9.35625Z" fill="white"/>
<path d="M12.4031 10.125L12.2344 9.60937L12.0656 10.125H11.5312L11.9625 10.4391L11.7984 10.95L12.2344 10.6359L12.6703 10.95L12.5062 10.4391L12.9375 10.125H12.4031Z" fill="white"/>
<path d="M15.45 10.125L15.2812 9.60937L15.1125 10.125H14.5781L15.0094 10.4391L14.8453 10.95L15.2812 10.6359L15.7172 10.95L15.5531 10.4391L15.9844 10.125H15.45Z" fill="white"/>
<path d="M1.71562 11.3906L1.54688 10.875L1.37812 11.3906H0.84375L1.275 11.7047L1.11094 12.2156L1.54688 11.9016L1.98281 12.2156L1.81875 11.7047L2.25 11.3906H1.71562Z" fill="white"/>
<path d="M4.7625 11.3906L4.59375 10.875L4.425 11.3906H3.89062L4.32187 11.7047L4.15781 12.2156L4.59375 11.9016L5.02969 12.2156L4.86563 11.7047L5.29688 11.3906H4.7625Z" fill="white"/>
<path d="M7.80938 11.3906L7.64062 10.875L7.47187 11.3906H6.9375L7.36875 11.7047L7.20469 12.2156L7.64062 11.9016L8.07656 12.2156L7.9125 11.7047L8.34375 11.3906H7.80938Z" fill="white"/>
<path d="M10.8563 11.3906L10.6875 10.875L10.5187 11.3906H9.98438L10.4156 11.7047L10.2516 12.2156L10.6875 11.9016L11.1234 12.2156L10.9594 11.7047L11.3906 11.3906H10.8563Z" fill="white"/>
<path d="M13.9031 11.3906L13.7344 10.875L13.5656 11.3906H13.0312L13.4625 11.7047L13.2984 12.2156L13.7344 11.9016L14.1703 12.2156L14.0062 11.7047L14.4375 11.3906H13.9031Z" fill="white"/>
<path d="M16.9969 11.3906L16.8281 10.875L16.6594 11.3906H16.125L16.5563 11.7047L16.3922 12.2156L16.8281 11.9016L17.2641 12.2156L17.1 11.7047L17.5312 11.3906H16.9969Z" fill="white"/>
</g>
<defs>
<clipPath id="clip0_124_1925">
<rect width="24" height="24" rx="12" fill="white"/>
</clipPath>
</defs>
</svg>
