<svg width="22" height="22" viewBox="0 0 22 22" fill="none" xmlns="http://www.w3.org/2000/svg">
<g clip-path="url(#clip0_124_1984)">
<path d="M25.1429 18.6154C25.1429 19.513 24.7995 20.3739 24.1883 21.0087C23.5771 21.6434 22.7481 22 21.8836 22H-0.93117C-1.79558 22 -2.62459 21.6434 -3.23581 21.0087C-3.84704 20.3739 -4.19043 19.513 -4.19043 18.6154V3.38462C-4.19043 2.48696 -3.84704 1.62607 -3.23581 0.991331C-2.62459 0.356592 -1.79558 0 -0.93117 0H21.8836C22.7481 0 23.5771 0.356592 24.1883 0.991331C24.7995 1.62607 25.1429 2.48696 25.1429 3.38462V18.6154Z" fill="#032EA1"/>
<path d="M-4.19043 4.71436H25.1429V17.284H-4.19043V4.71436Z" fill="#E01E24"/>
<path d="M17.8266 15.1436V14.3804H17.385V13.618H16.9808V13.1222H16.7967V12.7405H16.4398L16.2459 12.452V11.099L16.4667 10.8697V9.61062L16.2825 9.78239V9.38131H16.135V9.57254H15.8425V8.96078L15.493 9.2857L15.6038 8.87531L15.4009 7.93101H15.2901C15.2901 7.93101 15.1996 7.52993 15.0155 7.52993C15.0155 7.52993 15.0888 7.28285 14.9413 7.28285C14.7939 7.28285 14.8305 7.47324 14.8305 7.47324C14.8305 7.47324 14.5739 7.58831 14.5739 7.87347L14.4272 7.85485L14.2064 8.96078L14.362 9.2857L14.0035 8.96078V9.80101H12.0569V9.03778L11.9461 9.15201V9.41939H11.6894V9.15201L11.8736 8.98024V8.61808L11.7253 8.7797L11.5045 8.46493V8.19754L11.3765 8.33039L11.339 8.10193L11.5232 7.79731L11.4955 7.54939L11.2853 7.81593V7.58747L11.3773 7.37762L10.9545 6.27001L10.8534 5.9637L10.6978 5.94508V5.79193C10.6978 5.79193 10.587 5.52539 10.4403 5.52539C10.2936 5.52539 10.1836 5.79193 10.1836 5.79193V5.94508L10.028 5.9637L9.92616 6.27001L9.50408 7.37762L9.59616 7.58747V7.81593L9.38512 7.54939L9.3566 7.79731L9.54075 8.10193L9.5049 8.33039L9.37615 8.19754V8.46493L9.15615 8.7797L9.00867 8.61808V8.98024L9.19282 9.15201V9.41939H8.93616V9.15201L8.82534 9.03778V9.80101H6.87467V8.96078L6.51616 9.2857L6.67179 8.96078L6.45097 7.85485L6.30349 7.87347C6.30349 7.58831 6.04682 7.47324 6.04682 7.47324C6.04682 7.47324 6.08349 7.28285 5.93601 7.28285C5.78934 7.28285 5.86267 7.52993 5.86267 7.52993C5.67853 7.52993 5.58727 7.93101 5.58727 7.93101H5.47727L5.27519 8.87531L5.38519 9.2857L5.03645 8.96078V9.5717H4.7423V9.38047H4.59482V9.78154L4.41149 9.60978V10.8689L4.63149 11.0982V12.4512L4.43675 12.7397H4.15319V13.1213H3.89734V13.6172H3.52904V14.3795H3.12571V15.1428H2.72075L2.68408 15.9813H18.1941L18.2307 15.1428L17.8266 15.1436Z" fill="white"/>
<path d="M5.25826 10.8888V12.3569H4.59582L4.43774 12.6768H5.25826V15.9827H5.53693V10.8888H5.25826ZM16.4465 12.6768L16.3014 12.3569H15.7017V10.8888H15.4263V15.9827H15.7017V12.6768H16.4465ZM9.74708 10.8888V12.3569H6.73878V10.8804H6.46989V15.9742H6.73878V12.6768H9.74708V15.9827H10.0347V10.8888H9.74708ZM14.152 10.8888V12.3569H11.2194V10.8888H10.9351V15.9827H11.2194V12.6768H14.152V15.9827H14.4999V10.8888H14.152Z" fill="#DB7F86"/>
</g>
<defs>
<clipPath id="clip0_124_1984">
<rect width="22" height="22" rx="11" fill="white"/>
</clipPath>
</defs>
</svg>
