<svg width="24" height="24" viewBox="0 0 24 24" fill="none" xmlns="http://www.w3.org/2000/svg">
<g clip-path="url(#clip0_124_1899)">
<path d="M0 0H24V24H0V0Z" fill="#EE1C25"/>
<path d="M9.5999 4.9199L3.4799 8.8799L5.9999 2.3999L8.1599 8.8799L2.3999 4.9199H9.5999Z" fill="#FFFF00"/>
<path d="M11.0895 1.54896L13.2702 2.61701L10.9876 3.0092L12.4672 1.28073L12.3248 3.60477L11.0895 1.54896Z" fill="#FFFF00"/>
<path d="M13.8689 3.66623L15.4632 5.49989L13.2064 4.97262L15.2434 3.95545L14.2071 6.04229L13.8689 3.66623Z" fill="#FFFF00"/>
<path d="M14.3707 7.14996L15.0776 9.47602L13.2318 8.07243L15.5078 7.97565L13.7088 9.45822L14.3707 7.14996Z" fill="#FFFF00"/>
<path d="M12.4692 9.63884L12.2238 12.055L11.064 10.0498L13.1988 10.8382L10.9692 11.5108L12.4692 9.63884Z" fill="#FFFF00"/>
</g>
<defs>
<clipPath id="clip0_124_1899">
<rect width="24" height="24" rx="12" fill="white"/>
</clipPath>
</defs>
</svg>
