<svg width="32" height="32" viewBox="0 0 32 32" fill="none" xmlns="http://www.w3.org/2000/svg">
<path d="M0.780518 15.7011C0.780518 14.4079 1.82883 13.3596 3.12198 13.3596H29.6586C30.9517 13.3596 32 14.4079 32 15.7011V28.1889C32 29.482 30.9517 30.5304 29.6586 30.5304H3.12198C1.82883 30.5304 0.780518 29.482 0.780518 28.1889V15.7011Z" fill="#021024" fill-opacity="0.1"/>
<path d="M0.780518 14.9206C0.780518 14.0585 1.47939 13.3596 2.34149 13.3596H28.8781C29.7402 13.3596 30.4391 14.0585 30.4391 14.9206V27.4084C30.4391 28.2705 29.7402 28.9694 28.8781 28.9694H2.34149C1.47939 28.9694 0.780518 28.2705 0.780518 27.4084V14.9206Z" fill="url(#paint0_linear_1_2476)"/>
<path fill-rule="evenodd" clip-rule="evenodd" d="M2.34146 12.5791H28.878C30.1712 12.5791 31.2195 13.6274 31.2195 14.9206V27.4084C31.2195 28.7015 30.1712 29.7498 28.878 29.7498H2.34146C1.04831 29.7498 0 28.7015 0 27.4084V14.9206C0 13.6274 1.04831 12.5791 2.34146 12.5791ZM2.34146 13.3596C1.47936 13.3596 0.780488 14.0585 0.780488 14.9206V27.4084C0.780488 28.2705 1.47936 28.9693 2.34146 28.9693H28.878C29.7402 28.9693 30.439 28.2705 30.439 27.4084V14.9206C30.439 14.0585 29.7402 13.3596 28.878 13.3596H2.34146Z" fill="white"/>
<path fill-rule="evenodd" clip-rule="evenodd" d="M0.780518 14.9206C0.780518 14.0585 1.47939 13.3596 2.34149 13.3596H10.9269C11.1424 13.3596 11.3171 13.5343 11.3171 13.7499C11.3171 13.9654 11.1424 14.1401 10.9269 14.1401H2.34149C1.91044 14.1401 1.56101 14.4895 1.56101 14.9206V19.2133C1.56101 19.4288 1.38629 19.6035 1.17076 19.6035C0.955236 19.6035 0.780518 19.4288 0.780518 19.2133V14.9206Z" fill="#F4B300"/>
<path d="M5.46347 14.1401H2.34152C1.91047 14.1401 1.56104 14.4896 1.56104 14.9206V17.8632C1.56104 18.3583 2.01621 18.7259 2.48187 18.5578C3.92465 18.0369 5.77669 16.8905 6.16894 14.9161C6.25294 14.4933 5.89453 14.1401 5.46347 14.1401Z" fill="#DB7F16"/>
<path d="M25.7561 28.189L28.8781 28.189C29.3091 28.189 29.6586 27.8395 29.6586 27.4085L29.6586 24.4659C29.6586 23.9708 29.2034 23.6032 28.7377 23.7713C27.295 24.2922 25.4429 25.4386 25.0507 27.413C24.9667 27.8358 25.3251 28.189 25.7561 28.189Z" fill="#DB7F16"/>
<path d="M1.56103 24.2865L1.56104 27.4085C1.56104 27.8395 1.91047 28.189 2.34152 28.189L5.28412 28.189C5.77919 28.189 6.14677 27.7338 5.97867 27.2681C5.45783 25.8254 4.31143 23.9733 2.33699 23.5811C1.9142 23.4971 1.56103 23.8555 1.56103 24.2865Z" fill="#DB7F16"/>
<path d="M29.6586 18.0426L29.6586 14.9206C29.6586 14.4896 29.3091 14.1401 28.8781 14.1401L25.9355 14.1401C25.4404 14.1401 25.0728 14.5953 25.2409 15.061C25.7618 16.5038 26.9082 18.3558 28.8826 18.748C29.3054 18.832 29.6586 18.4736 29.6586 18.0426Z" fill="#DB7F16"/>
<path d="M23.4146 25.0669C23.4146 25.2824 23.2399 25.4571 23.0244 25.4571C22.8089 25.4571 22.6342 25.2824 22.6342 25.0669C22.6342 24.8514 22.8089 24.6766 23.0244 24.6766C23.2399 24.6766 23.4146 24.8514 23.4146 25.0669Z" fill="#DB7F16"/>
<path d="M24.9756 24.6766C24.9756 24.8921 24.8008 25.0669 24.5853 25.0669C24.3698 25.0669 24.1951 24.8921 24.1951 24.6766C24.1951 24.4611 24.3698 24.2864 24.5853 24.2864C24.8008 24.2864 24.9756 24.4611 24.9756 24.6766Z" fill="#DB7F16"/>
<path d="M24.9756 26.2377C24.9756 26.4532 24.8008 26.6279 24.5853 26.6279C24.3698 26.6279 24.1951 26.4532 24.1951 26.2377C24.1951 26.0221 24.3698 25.8474 24.5853 25.8474C24.8008 25.8474 24.9756 26.0221 24.9756 26.2377Z" fill="#DB7F16"/>
<path d="M23.0244 26.6279C23.0244 26.8434 22.8497 27.0182 22.6341 27.0182C22.4186 27.0182 22.2439 26.8434 22.2439 26.6279C22.2439 26.4124 22.4186 26.2377 22.6341 26.2377C22.8497 26.2377 23.0244 26.4124 23.0244 26.6279Z" fill="#DB7F16"/>
<path d="M21.0731 26.6279C21.0731 26.8434 20.8984 27.0182 20.6828 27.0182C20.4673 27.0182 20.2926 26.8434 20.2926 26.6279C20.2926 26.4124 20.4673 26.2377 20.6828 26.2377C20.8984 26.2377 21.0731 26.4124 21.0731 26.6279Z" fill="#DB7F16"/>
<path d="M19.1219 27.7986C19.1219 28.0141 18.9472 28.1888 18.7317 28.1888C18.5161 28.1888 18.3414 28.0141 18.3414 27.7986C18.3414 27.583 18.5161 27.4083 18.7317 27.4083C18.9472 27.4083 19.1219 27.583 19.1219 27.7986Z" fill="#DB7F16"/>
<path d="M29.6585 22.7254C29.6585 22.941 29.4838 23.1157 29.2683 23.1157C29.0528 23.1157 28.8781 22.941 28.8781 22.7254C28.8781 22.5099 29.0528 22.3352 29.2683 22.3352C29.4838 22.3352 29.6585 22.5099 29.6585 22.7254Z" fill="#DB7F16"/>
<path d="M26.1463 23.1157C26.1463 23.3312 25.9716 23.506 25.7561 23.506C25.5406 23.506 25.3658 23.3312 25.3658 23.1157C25.3658 22.9002 25.5406 22.7255 25.7561 22.7255C25.9716 22.7255 26.1463 22.9002 26.1463 23.1157Z" fill="#DB7F16"/>
<path d="M24.5853 27.7986C24.5853 28.0141 24.4106 28.1888 24.1951 28.1888C23.9795 28.1888 23.8048 28.0141 23.8048 27.7986C23.8048 27.583 23.9795 27.4083 24.1951 27.4083C24.4106 27.4083 24.5853 27.583 24.5853 27.7986Z" fill="#DB7F16"/>
<path d="M22.2439 27.7986C22.2439 28.0141 22.0691 28.1888 21.8536 28.1888C21.6381 28.1888 21.4634 28.0141 21.4634 27.7986C21.4634 27.583 21.6381 27.4083 21.8536 27.4083C22.0691 27.4083 22.2439 27.583 22.2439 27.7986Z" fill="#DB7F16"/>
<path d="M26.5366 25.0669C26.5366 25.2824 26.3619 25.4571 26.1463 25.4571C25.9308 25.4571 25.7561 25.2824 25.7561 25.0669C25.7561 24.8514 25.9308 24.6766 26.1463 24.6766C26.3619 24.6766 26.5366 24.8514 26.5366 25.0669Z" fill="#DB7F16"/>
<path d="M28.0975 25.8474C28.0975 26.0629 27.9228 26.2376 27.7073 26.2376C27.4917 26.2376 27.317 26.0629 27.317 25.8474C27.317 25.6319 27.4917 25.4572 27.7073 25.4572C27.9228 25.4572 28.0975 25.6319 28.0975 25.8474Z" fill="#DB7F16"/>
<path d="M27.7072 23.8962C27.7072 24.1118 27.5325 24.2865 27.317 24.2865C27.1015 24.2865 26.9268 24.1118 26.9268 23.8962C26.9268 23.6807 27.1015 23.506 27.317 23.506C27.5325 23.506 27.7072 23.6807 27.7072 23.8962Z" fill="#DB7F16"/>
<path d="M26.1463 27.0182C26.1463 27.2337 25.9716 27.4084 25.7561 27.4084C25.5406 27.4084 25.3658 27.2337 25.3658 27.0182C25.3658 26.8026 25.5406 26.6279 25.7561 26.6279C25.9716 26.6279 26.1463 26.8026 26.1463 27.0182Z" fill="#DB7F16"/>
<path d="M28.0975 27.7986C28.0975 28.0141 27.9228 28.1888 27.7073 28.1888C27.4917 28.1888 27.317 28.0141 27.317 27.7986C27.317 27.583 27.4917 27.4083 27.7073 27.4083C27.9228 27.4083 28.0975 27.583 28.0975 27.7986Z" fill="#DB7F16"/>
<path fill-rule="evenodd" clip-rule="evenodd" d="M21.4634 21.1644C21.4634 24.3973 18.8426 27.0181 15.6098 27.0181C12.3769 27.0181 9.7561 24.3973 9.7561 21.1644C9.7561 17.9316 12.3769 15.3108 15.6098 15.3108C18.8426 15.3108 21.4634 17.9316 21.4634 21.1644ZM15.6098 26.2376C18.4116 26.2376 20.6829 23.9663 20.6829 21.1644C20.6829 18.3626 18.4116 16.0913 15.6098 16.0913C12.8079 16.0913 10.5366 18.3626 10.5366 21.1644C10.5366 23.9663 12.8079 26.2376 15.6098 26.2376Z" fill="white"/>
<path fill-rule="evenodd" clip-rule="evenodd" d="M15.6098 16.8718C13.239 16.8718 11.3171 18.7937 11.3171 21.1645C11.3171 21.38 11.1424 21.5547 10.9269 21.5547C10.7113 21.5547 10.5366 21.38 10.5366 21.1645C10.5366 18.3626 12.808 16.0913 15.6098 16.0913C15.8253 16.0913 16 16.266 16 16.4816C16 16.6971 15.8253 16.8718 15.6098 16.8718Z" fill="#F4B300"/>
<path fill-rule="evenodd" clip-rule="evenodd" d="M16.0324 18.6279C14.894 18.6279 13.8536 19.6946 13.8536 21.1645C13.8536 22.6344 14.894 23.7011 16.0324 23.7011C16.4614 23.7011 16.8652 23.5565 17.2094 23.298C17.4679 23.1039 17.8349 23.1561 18.029 23.4146C18.2231 23.6731 18.1709 24.04 17.9124 24.2342C17.381 24.6333 16.7337 24.8718 16.0324 24.8718C14.1176 24.8718 12.6829 23.143 12.6829 21.1645C12.6829 19.186 14.1176 17.4572 16.0324 17.4572C16.7337 17.4572 17.381 17.6957 17.9124 18.0948C18.1709 18.2889 18.2231 18.6558 18.029 18.9143C17.8349 19.1729 17.4679 19.2251 17.2094 19.0309C16.8652 18.7725 16.4614 18.6279 16.0324 18.6279Z" fill="white"/>
<path fill-rule="evenodd" clip-rule="evenodd" d="M11.7073 21.9449C11.7073 21.7294 11.882 21.5547 12.0975 21.5547H15.2195C15.435 21.5547 15.6097 21.7294 15.6097 21.9449C15.6097 22.1605 15.435 22.3352 15.2195 22.3352H12.0975C11.882 22.3352 11.7073 22.1605 11.7073 21.9449Z" fill="white"/>
<path fill-rule="evenodd" clip-rule="evenodd" d="M11.7073 20.384C11.7073 20.1685 11.882 19.9938 12.0975 19.9938H15.2195C15.435 19.9938 15.6097 20.1685 15.6097 20.384C15.6097 20.5995 15.435 20.7743 15.2195 20.7743H12.0975C11.882 20.7743 11.7073 20.5995 11.7073 20.384Z" fill="white"/>
<g clip-path="url(#clip0_1_2476)">
<path d="M23.5623 18.1569C24.0195 18.6141 24.7608 18.6141 25.218 18.1569L30.163 13.2119C30.9005 12.4744 30.3782 11.2133 29.3352 11.2133H27.7073V4.38408C27.7073 3.30645 26.8337 2.43286 25.756 2.43286H23.0243C21.9467 2.43286 21.0731 3.30645 21.0731 4.38408L21.0731 11.2133H19.4452C18.4022 11.2133 17.8798 12.4744 18.6173 13.2119L23.5623 18.1569Z" fill="#021024" fill-opacity="0.1"/>
<path d="M24.5519 17.4908L29.4969 12.5458C29.9886 12.0541 29.6403 11.2134 28.945 11.2134L26.9268 11.2134L26.9268 3.99387C26.9268 3.13177 26.228 2.43289 25.3658 2.43289L22.6341 2.43289C21.772 2.43289 21.0732 3.13177 21.0732 3.99387L21.0732 11.2134L19.055 11.2134C18.3597 11.2134 18.0114 12.0541 18.5031 12.5458L23.4481 17.4908C23.7529 17.7956 24.2471 17.7956 24.5519 17.4908Z" fill="#FFCF23"/>
<path fill-rule="evenodd" clip-rule="evenodd" d="M23.7241 17.2148C23.8765 17.3672 24.1236 17.3672 24.276 17.2148L29.221 12.2698C29.4669 12.024 29.2928 11.6036 28.9451 11.6036L26.9269 11.6036C26.7114 11.6036 26.5367 11.4289 26.5367 11.2134L26.5367 3.99388C26.5367 3.34731 26.0125 2.82315 25.3659 2.82315L22.6342 2.82315C21.9877 2.82315 21.4635 3.34731 21.4635 3.99388L21.4635 11.2134C21.4635 11.4289 21.2888 11.6036 21.0733 11.6036L19.0551 11.6036C18.7074 11.6036 18.5333 12.024 18.7791 12.2698L23.7241 17.2148ZM24.8279 17.7667C24.3707 18.2239 23.6294 18.2239 23.1722 17.7667L18.2272 12.8217C17.4897 12.0842 18.0121 10.8232 19.0551 10.8232L20.683 10.8232L20.683 3.99388C20.683 2.91626 21.5566 2.04266 22.6342 2.04266L25.3659 2.04267C26.4436 2.04267 27.3172 2.91626 27.3172 3.99388L27.3172 10.8232L28.9451 10.8232C29.9881 10.8232 30.5104 12.0842 29.7729 12.8217L24.8279 17.7667Z" fill="#B96F00"/>
<path fill-rule="evenodd" clip-rule="evenodd" d="M22.244 3.21338C22.4595 3.21338 22.6342 3.3881 22.6342 3.60362V11.7987C22.6342 12.0143 22.4595 12.189 22.244 12.189C22.0285 12.189 21.8538 12.0143 21.8538 11.7987V3.60362C21.8538 3.3881 22.0285 3.21338 22.244 3.21338Z" fill="#FFE792"/>
<path fill-rule="evenodd" clip-rule="evenodd" d="M19.6265 12.1081C19.7789 11.9557 20.026 11.9557 20.1784 12.1081L23.6906 15.6203C23.843 15.7727 23.843 16.0198 23.6906 16.1722C23.5382 16.3246 23.2911 16.3246 23.1387 16.1722L19.6265 12.66C19.4741 12.5076 19.4741 12.2605 19.6265 12.1081Z" fill="#FFE792"/>
<path fill-rule="evenodd" clip-rule="evenodd" d="M22.244 3.21338C22.4595 3.21338 22.6342 3.3881 22.6342 3.60362V5.55484C22.6342 5.77037 22.4595 5.94509 22.244 5.94509C22.0285 5.94509 21.8538 5.77037 21.8538 5.55484V3.60362C21.8538 3.3881 22.0285 3.21338 22.244 3.21338Z" fill="#FFE792"/>
<path fill-rule="evenodd" clip-rule="evenodd" d="M25.7561 3.21338C25.5406 3.21338 25.3659 3.3881 25.3659 3.60362V11.7987C25.3659 12.0143 25.5406 12.189 25.7561 12.189C25.9716 12.189 26.1464 12.0143 26.1464 11.7987V3.60362C26.1464 3.3881 25.9716 3.21338 25.7561 3.21338Z" fill="#F9B300"/>
<path fill-rule="evenodd" clip-rule="evenodd" d="M28.576 12.1156C28.4278 11.9592 28.1808 11.9525 28.0244 12.1007L24.317 15.6129C24.1606 15.7611 24.1539 16.0081 24.3021 16.1646C24.4504 16.3211 24.6973 16.3277 24.8538 16.1795L28.5611 12.6673C28.7176 12.5191 28.7243 12.2721 28.576 12.1156Z" fill="#F9B300"/>
</g>
<defs>
<linearGradient id="paint0_linear_1_2476" x1="15.6098" y1="13.3596" x2="15.6098" y2="28.9694" gradientUnits="userSpaceOnUse">
<stop stop-color="#F2AE26"/>
<stop offset="1" stop-color="#F2831A"/>
</linearGradient>
<clipPath id="clip0_1_2476">
<rect width="13.2683" height="16.7805" fill="white" transform="translate(17.561 2.0426)"/>
</clipPath>
</defs>
</svg>
