<svg width="32" height="32" viewBox="0 0 32 32" fill="none" xmlns="http://www.w3.org/2000/svg">
<path d="M0.780518 15.7011C0.780518 14.4079 1.82883 13.3596 3.12198 13.3596H29.6586C30.9517 13.3596 32 14.4079 32 15.7011V28.1889C32 29.482 30.9517 30.5304 29.6586 30.5304H3.12198C1.82883 30.5304 0.780518 29.482 0.780518 28.1889V15.7011Z" fill="#021024" fill-opacity="0.1"/>
<path d="M0.780518 14.9206C0.780518 14.0585 1.47939 13.3596 2.34149 13.3596H28.8781C29.7402 13.3596 30.4391 14.0585 30.4391 14.9206V27.4084C30.4391 28.2705 29.7402 28.9694 28.8781 28.9694H2.34149C1.47939 28.9694 0.780518 28.2705 0.780518 27.4084V14.9206Z" fill="url(#paint0_linear_1_2479)"/>
<path fill-rule="evenodd" clip-rule="evenodd" d="M2.34146 12.5791H28.878C30.1712 12.5791 31.2195 13.6274 31.2195 14.9206V27.4084C31.2195 28.7015 30.1712 29.7498 28.878 29.7498H2.34146C1.04831 29.7498 0 28.7015 0 27.4084V14.9206C0 13.6274 1.04831 12.5791 2.34146 12.5791ZM2.34146 13.3596C1.47936 13.3596 0.780488 14.0585 0.780488 14.9206V27.4084C0.780488 28.2705 1.47936 28.9693 2.34146 28.9693H28.878C29.7402 28.9693 30.439 28.2705 30.439 27.4084V14.9206C30.439 14.0585 29.7402 13.3596 28.878 13.3596H2.34146Z" fill="white"/>
<path fill-rule="evenodd" clip-rule="evenodd" d="M0.780518 14.9206C0.780518 14.0585 1.47939 13.3596 2.34149 13.3596H10.9269C11.1424 13.3596 11.3171 13.5343 11.3171 13.7499C11.3171 13.9654 11.1424 14.1401 10.9269 14.1401H2.34149C1.91044 14.1401 1.56101 14.4895 1.56101 14.9206V19.2133C1.56101 19.4288 1.38629 19.6035 1.17076 19.6035C0.955236 19.6035 0.780518 19.4288 0.780518 19.2133V14.9206Z" fill="#F4B300"/>
<path d="M5.46347 14.1401H2.34152C1.91047 14.1401 1.56104 14.4896 1.56104 14.9206V17.8632C1.56104 18.3583 2.01621 18.7259 2.48187 18.5578C3.92465 18.0369 5.77669 16.8905 6.16894 14.9161C6.25294 14.4933 5.89453 14.1401 5.46347 14.1401Z" fill="#DB7F16"/>
<path d="M25.7561 28.189L28.8781 28.189C29.3091 28.189 29.6586 27.8395 29.6586 27.4085L29.6586 24.4659C29.6586 23.9708 29.2034 23.6032 28.7377 23.7713C27.295 24.2922 25.4429 25.4386 25.0507 27.413C24.9667 27.8358 25.3251 28.189 25.7561 28.189Z" fill="#DB7F16"/>
<path d="M1.56103 24.2865L1.56104 27.4085C1.56104 27.8395 1.91047 28.189 2.34152 28.189L5.28412 28.189C5.77919 28.189 6.14677 27.7338 5.97867 27.2681C5.45783 25.8254 4.31143 23.9733 2.33699 23.5811C1.9142 23.4971 1.56103 23.8555 1.56103 24.2865Z" fill="#DB7F16"/>
<path d="M29.6586 18.0426L29.6586 14.9206C29.6586 14.4896 29.3091 14.1401 28.8781 14.1401L25.9355 14.1401C25.4404 14.1401 25.0728 14.5953 25.2409 15.061C25.7618 16.5038 26.9082 18.3558 28.8826 18.748C29.3054 18.832 29.6586 18.4736 29.6586 18.0426Z" fill="#DB7F16"/>
<path d="M23.4146 25.0669C23.4146 25.2824 23.2399 25.4571 23.0244 25.4571C22.8089 25.4571 22.6342 25.2824 22.6342 25.0669C22.6342 24.8514 22.8089 24.6766 23.0244 24.6766C23.2399 24.6766 23.4146 24.8514 23.4146 25.0669Z" fill="#DB7F16"/>
<path d="M24.9756 24.6766C24.9756 24.8921 24.8008 25.0669 24.5853 25.0669C24.3698 25.0669 24.1951 24.8921 24.1951 24.6766C24.1951 24.4611 24.3698 24.2864 24.5853 24.2864C24.8008 24.2864 24.9756 24.4611 24.9756 24.6766Z" fill="#DB7F16"/>
<path d="M24.9756 26.2377C24.9756 26.4532 24.8008 26.6279 24.5853 26.6279C24.3698 26.6279 24.1951 26.4532 24.1951 26.2377C24.1951 26.0221 24.3698 25.8474 24.5853 25.8474C24.8008 25.8474 24.9756 26.0221 24.9756 26.2377Z" fill="#DB7F16"/>
<path d="M23.0244 26.6279C23.0244 26.8434 22.8497 27.0182 22.6341 27.0182C22.4186 27.0182 22.2439 26.8434 22.2439 26.6279C22.2439 26.4124 22.4186 26.2377 22.6341 26.2377C22.8497 26.2377 23.0244 26.4124 23.0244 26.6279Z" fill="#DB7F16"/>
<path d="M21.0731 26.6279C21.0731 26.8434 20.8984 27.0182 20.6828 27.0182C20.4673 27.0182 20.2926 26.8434 20.2926 26.6279C20.2926 26.4124 20.4673 26.2377 20.6828 26.2377C20.8984 26.2377 21.0731 26.4124 21.0731 26.6279Z" fill="#DB7F16"/>
<path d="M19.1219 27.7986C19.1219 28.0141 18.9472 28.1888 18.7317 28.1888C18.5161 28.1888 18.3414 28.0141 18.3414 27.7986C18.3414 27.583 18.5161 27.4083 18.7317 27.4083C18.9472 27.4083 19.1219 27.583 19.1219 27.7986Z" fill="#DB7F16"/>
<path d="M29.6585 22.7254C29.6585 22.941 29.4838 23.1157 29.2683 23.1157C29.0528 23.1157 28.8781 22.941 28.8781 22.7254C28.8781 22.5099 29.0528 22.3352 29.2683 22.3352C29.4838 22.3352 29.6585 22.5099 29.6585 22.7254Z" fill="#DB7F16"/>
<path d="M26.1463 23.1157C26.1463 23.3312 25.9716 23.506 25.7561 23.506C25.5406 23.506 25.3658 23.3312 25.3658 23.1157C25.3658 22.9002 25.5406 22.7255 25.7561 22.7255C25.9716 22.7255 26.1463 22.9002 26.1463 23.1157Z" fill="#DB7F16"/>
<path d="M24.5853 27.7986C24.5853 28.0141 24.4106 28.1888 24.1951 28.1888C23.9795 28.1888 23.8048 28.0141 23.8048 27.7986C23.8048 27.583 23.9795 27.4083 24.1951 27.4083C24.4106 27.4083 24.5853 27.583 24.5853 27.7986Z" fill="#DB7F16"/>
<path d="M22.2439 27.7986C22.2439 28.0141 22.0691 28.1888 21.8536 28.1888C21.6381 28.1888 21.4634 28.0141 21.4634 27.7986C21.4634 27.583 21.6381 27.4083 21.8536 27.4083C22.0691 27.4083 22.2439 27.583 22.2439 27.7986Z" fill="#DB7F16"/>
<path d="M26.5366 25.0669C26.5366 25.2824 26.3619 25.4571 26.1463 25.4571C25.9308 25.4571 25.7561 25.2824 25.7561 25.0669C25.7561 24.8514 25.9308 24.6766 26.1463 24.6766C26.3619 24.6766 26.5366 24.8514 26.5366 25.0669Z" fill="#DB7F16"/>
<path d="M28.0975 25.8474C28.0975 26.0629 27.9228 26.2376 27.7073 26.2376C27.4917 26.2376 27.317 26.0629 27.317 25.8474C27.317 25.6319 27.4917 25.4572 27.7073 25.4572C27.9228 25.4572 28.0975 25.6319 28.0975 25.8474Z" fill="#DB7F16"/>
<path d="M27.7072 23.8962C27.7072 24.1118 27.5325 24.2865 27.317 24.2865C27.1015 24.2865 26.9268 24.1118 26.9268 23.8962C26.9268 23.6807 27.1015 23.506 27.317 23.506C27.5325 23.506 27.7072 23.6807 27.7072 23.8962Z" fill="#DB7F16"/>
<path d="M26.1463 27.0182C26.1463 27.2337 25.9716 27.4084 25.7561 27.4084C25.5406 27.4084 25.3658 27.2337 25.3658 27.0182C25.3658 26.8026 25.5406 26.6279 25.7561 26.6279C25.9716 26.6279 26.1463 26.8026 26.1463 27.0182Z" fill="#DB7F16"/>
<path d="M28.0975 27.7986C28.0975 28.0141 27.9228 28.1888 27.7073 28.1888C27.4917 28.1888 27.317 28.0141 27.317 27.7986C27.317 27.583 27.4917 27.4083 27.7073 27.4083C27.9228 27.4083 28.0975 27.583 28.0975 27.7986Z" fill="#DB7F16"/>
<path fill-rule="evenodd" clip-rule="evenodd" d="M21.4634 21.1644C21.4634 24.3973 18.8426 27.0181 15.6098 27.0181C12.3769 27.0181 9.7561 24.3973 9.7561 21.1644C9.7561 17.9316 12.3769 15.3108 15.6098 15.3108C18.8426 15.3108 21.4634 17.9316 21.4634 21.1644ZM15.6098 26.2376C18.4116 26.2376 20.6829 23.9663 20.6829 21.1644C20.6829 18.3626 18.4116 16.0913 15.6098 16.0913C12.8079 16.0913 10.5366 18.3626 10.5366 21.1644C10.5366 23.9663 12.8079 26.2376 15.6098 26.2376Z" fill="white"/>
<path fill-rule="evenodd" clip-rule="evenodd" d="M15.6098 16.8718C13.239 16.8718 11.3171 18.7937 11.3171 21.1645C11.3171 21.38 11.1424 21.5547 10.9269 21.5547C10.7113 21.5547 10.5366 21.38 10.5366 21.1645C10.5366 18.3626 12.808 16.0913 15.6098 16.0913C15.8253 16.0913 16 16.266 16 16.4816C16 16.6971 15.8253 16.8718 15.6098 16.8718Z" fill="#F4B300"/>
<path fill-rule="evenodd" clip-rule="evenodd" d="M16.0324 18.6279C14.894 18.6279 13.8536 19.6946 13.8536 21.1645C13.8536 22.6344 14.894 23.7011 16.0324 23.7011C16.4614 23.7011 16.8652 23.5565 17.2094 23.298C17.4679 23.1039 17.8349 23.1561 18.029 23.4146C18.2231 23.6731 18.1709 24.04 17.9124 24.2342C17.381 24.6333 16.7337 24.8718 16.0324 24.8718C14.1176 24.8718 12.6829 23.143 12.6829 21.1645C12.6829 19.186 14.1176 17.4572 16.0324 17.4572C16.7337 17.4572 17.381 17.6957 17.9124 18.0948C18.1709 18.2889 18.2231 18.6558 18.029 18.9143C17.8349 19.1729 17.4679 19.2251 17.2094 19.0309C16.8652 18.7725 16.4614 18.6279 16.0324 18.6279Z" fill="white"/>
<path fill-rule="evenodd" clip-rule="evenodd" d="M11.7073 21.9449C11.7073 21.7294 11.882 21.5547 12.0975 21.5547H15.2195C15.435 21.5547 15.6097 21.7294 15.6097 21.9449C15.6097 22.1605 15.435 22.3352 15.2195 22.3352H12.0975C11.882 22.3352 11.7073 22.1605 11.7073 21.9449Z" fill="white"/>
<path fill-rule="evenodd" clip-rule="evenodd" d="M11.7073 20.384C11.7073 20.1685 11.882 19.9938 12.0975 19.9938H15.2195C15.435 19.9938 15.6097 20.1685 15.6097 20.384C15.6097 20.5995 15.435 20.7743 15.2195 20.7743H12.0975C11.882 20.7743 11.7073 20.5995 11.7073 20.384Z" fill="white"/>
<g clip-path="url(#clip0_1_2479)">
<path d="M7.267 2.70844C6.8098 2.25124 6.06853 2.25124 5.61133 2.70844L0.66633 7.65345C-0.0711889 8.39097 0.451152 9.65201 1.49416 9.65201L3.12209 9.65201L3.12209 16.4813C3.12209 17.5589 3.99568 18.4325 5.07331 18.4325L7.80502 18.4325C8.88265 18.4325 9.75624 17.5589 9.75624 16.4813L9.75624 9.65201L11.3842 9.65201C12.4272 9.65201 12.9495 8.39096 12.212 7.65344L7.267 2.70844Z" fill="#021024" fill-opacity="0.1"/>
<path d="M6.27746 3.3746L1.33246 8.3196C0.840779 8.81128 1.18901 9.65197 1.88435 9.65197H3.90252V16.8715C3.90252 17.7336 4.60139 18.4325 5.4635 18.4325H8.19521C9.05731 18.4325 9.75618 17.7336 9.75618 16.8715V9.65197H11.7744C12.4697 9.65197 12.8179 8.81128 12.3262 8.3196L7.38124 3.3746C7.07644 3.0698 6.58226 3.0698 6.27746 3.3746Z" fill="#FFCF23"/>
<path fill-rule="evenodd" clip-rule="evenodd" d="M7.10521 3.65065C6.95281 3.49825 6.70572 3.49825 6.55332 3.65065L1.60832 8.59565C1.36248 8.84149 1.53659 9.26184 1.88426 9.26184L3.90244 9.26184C4.11796 9.26184 4.29268 9.43656 4.29268 9.65208L4.29268 16.8716C4.29268 17.5182 4.81683 18.0423 5.46341 18.0423L8.19512 18.0423C8.8417 18.0423 9.36585 17.5182 9.36585 16.8716L9.36585 9.65208C9.36585 9.43656 9.54057 9.26184 9.75609 9.26184L11.7743 9.26184C12.1219 9.26184 12.2961 8.84149 12.0502 8.59565L7.10521 3.65065ZM6.00143 3.09876C6.45863 2.64156 7.1999 2.64156 7.6571 3.09876L12.6021 8.04376C13.3396 8.78128 12.8173 10.0423 11.7743 10.0423L10.1463 10.0423L10.1463 16.8716C10.1463 17.9492 9.27275 18.8228 8.19512 18.8228L5.46341 18.8228C4.38578 18.8228 3.51219 17.9492 3.51219 16.8716L3.51219 10.0423L1.88426 10.0423C0.84125 10.0423 0.318908 8.78128 1.05643 8.04376L6.00143 3.09876Z" fill="#B96F00"/>
<path fill-rule="evenodd" clip-rule="evenodd" d="M8.58534 17.652C8.36982 17.652 8.1951 17.4773 8.1951 17.2617L8.1951 9.06661C8.1951 8.85109 8.36982 8.67637 8.58534 8.67637C8.80087 8.67637 8.97559 8.85109 8.97559 9.06661L8.97559 17.2617C8.97559 17.4773 8.80087 17.652 8.58534 17.652Z" fill="#FFE792"/>
<path fill-rule="evenodd" clip-rule="evenodd" d="M11.2028 8.75728C11.0504 8.90968 10.8034 8.90968 10.651 8.75728L7.13876 5.24509C6.98636 5.09269 6.98636 4.8456 7.13876 4.6932C7.29115 4.5408 7.53824 4.5408 7.69064 4.6932L11.2028 8.20539C11.3552 8.35779 11.3552 8.60488 11.2028 8.75728Z" fill="#FFE792"/>
<path fill-rule="evenodd" clip-rule="evenodd" d="M8.58534 17.652C8.36982 17.652 8.1951 17.4773 8.1951 17.2617L8.1951 15.3105C8.1951 15.095 8.36982 14.9203 8.58534 14.9203C8.80087 14.9203 8.97559 15.095 8.97559 15.3105L8.97559 17.2617C8.97559 17.4773 8.80087 17.652 8.58534 17.652Z" fill="#FFE792"/>
<path fill-rule="evenodd" clip-rule="evenodd" d="M5.07323 17.652C5.28875 17.652 5.46347 17.4773 5.46347 17.2617L5.46347 9.06661C5.46347 8.85109 5.28875 8.67637 5.07323 8.67637C4.8577 8.67637 4.68298 8.85109 4.68298 9.06661L4.68298 17.2617C4.68298 17.4773 4.8577 17.652 5.07323 17.652Z" fill="#F9B300"/>
<path fill-rule="evenodd" clip-rule="evenodd" d="M2.25331 8.74973C2.40154 8.90619 2.64853 8.91286 2.805 8.76464L6.51231 5.25244C6.66877 5.10421 6.67545 4.85722 6.52722 4.70075C6.379 4.54429 6.132 4.53762 5.97553 4.68584L2.26822 8.19804C2.11176 8.34627 2.10508 8.59326 2.25331 8.74973Z" fill="#F9B300"/>
</g>
<defs>
<linearGradient id="paint0_linear_1_2479" x1="15.6098" y1="13.3596" x2="15.6098" y2="28.9694" gradientUnits="userSpaceOnUse">
<stop stop-color="#F2AE26"/>
<stop offset="1" stop-color="#F2831A"/>
</linearGradient>
<clipPath id="clip0_1_2479">
<rect width="13.2683" height="16.7805" fill="white" transform="translate(13.2683 18.8228) rotate(180)"/>
</clipPath>
</defs>
</svg>
